<svg width="175" height="64" viewBox="0 0 175 64" fill="none" xmlns="http://www.w3.org/2000/svg">
<g clip-path="url(#clip0_507_90)">
<path d="M0 23.7063L7.79917 36.8564L10.92 33.8786L2.40333 21.2461L0 23.7063Z" fill="url(#paint0_linear_507_90)"/>
<path d="M116.037 13.342L115.71 15.0927L119.414 13.8597L118.959 11.7194L116.037 13.342Z" fill="#0071B9"/>
<path d="M94.2083 1.48891L82.1917 15.2206L85.6975 14.2494L97.1308 0L94.2083 1.48891Z" fill="url(#paint1_linear_507_90)"/>
<path d="M158.597 20.2748L161.519 18.7219L160.673 26.1083L158.597 20.2748Z" fill="#1D2C5E"/>
<path d="M140.21 25.0033L142.876 25.5849L146.189 23.968L143.267 22.8688L140.21 25.0033Z" fill="#1D2C5E"/>
<path d="M49.77 17.233L50.1608 25.7187L53.865 24.2937L52.7625 15.6161L49.77 17.233Z" fill="url(#paint2_linear_507_90)"/>
<path d="M143.068 14.639L140.146 16.2559L140.21 25.0033L143.197 23.5144L144.107 19.2395L143.068 14.639Z" fill="url(#paint3_linear_507_90)"/>
<path d="M142.678 25.5849L139.428 54.3453L144.626 53.3101L145.6 24.032L142.678 25.5849Z" fill="#312370"/>
<path d="M148.977 55.7121L149.106 59.5972L159.046 62.7728L162.032 61.2199L152.221 53.6416L142.345 52.7982L139.422 54.3511L148.977 55.7121Z" fill="#21386E"/>
<path d="M112.076 48.8433L114.479 47.5463L116.101 50.3962L118.376 49.1632L118.831 52.9204L133.321 55.5144L136.179 53.8975L116.235 41.7826L102.072 44.1788L99.3417 46.8368L112.076 48.8433Z" fill="#21386E"/>
<path d="M107.462 13.4758L104.539 15.0927L99.3417 46.8368L102.264 45.2839L107.269 27.4693L107.462 13.4758Z" fill="url(#paint4_linear_507_90)"/>
<path d="M84.3325 17.7506L81.9933 18.9837L82.1859 19.763L87.71 16.2675L85.3067 13.6736L82.1859 15.2265L84.3325 17.7506Z" fill="#1D2C5E"/>
<path d="M90.6325 55.2585L67.0483 43.5972L69.9708 41.329L93.555 53.6358L90.6325 55.2585Z" fill="#21386E"/>
<path d="M69.2592 11.8531L65.6833 18.594L69.4517 17.4947L72.1817 10.2421L69.2592 11.8531Z" fill="#1D2C5E"/>
<path d="M36.7733 39.7761L33.7867 41.8466C33.7867 41.8466 34.4342 45.2141 35.28 47.5464C36.1258 49.8786 38.0742 51.7572 38.0742 51.7572C39.375 52.9902 40.8683 53.8975 42.6242 54.4151C45.9375 55.3864 49.7058 54.7408 52.955 52.6645C53.8008 52.1469 54.9675 51.3035 55.685 50.594C52.4942 52.5365 36.7733 39.7761 36.7733 39.7761Z" fill="url(#paint5_linear_507_90)"/>
<path d="M52.9492 25.0673L55.6792 55.3166L66.9842 53.6997L69.9708 52.1469L56.0058 23.2585L53.1475 24.2297L50.1608 25.7187L52.9492 25.0673Z" fill="#1D2C5E"/>
<path d="M10.7217 35.5652L23.3275 64.0058L35.28 60.1846L38.2025 58.2421L13.3817 32.3257L10.2667 34.2043L7.79916 36.8622L10.7217 35.5652Z" fill="url(#paint6_linear_507_90)"/>
<path d="M135.403 48.9713L135.596 50.3962C136.634 50.2683 137.672 50.1345 138.647 49.8146C139.749 49.4249 142.088 48.3897 142.934 47.6103C142.549 47.7441 137.089 49.169 135.403 48.9713Z" fill="#1D2C5E"/>
<path d="M93.1058 41.7186L93.5608 43.9869C95.9642 43.5972 98.0467 42.7539 100.123 41.5267C101.424 40.7474 102.789 39.6481 103.244 39.3224C102.918 39.5143 93.1058 41.7186 93.1058 41.7186Z" fill="#1D2C5E"/>
<path d="M26.6028 61.2905L25.6929 59.22L13.7403 32.658L13.4778 32.1404L12.9587 32.4021L12.5678 32.5941L10.4212 33.6293C10.0945 33.1117 9.57535 32.2044 9.25452 31.6228L4.44785 23.5268L3.21118 21.3865L5.28785 20.0895C7.23618 18.8565 9.44702 17.6933 11.9145 16.658C16.7212 14.6515 21.5978 13.5464 26.0779 13.5464C27.5712 13.5464 29.0004 13.6744 30.3012 13.8721C32.512 14.1339 34.5887 14.8434 36.2804 16.0125C38.812 17.4374 40.8303 19.6417 41.9328 22.2298C42.8428 24.3701 43.0354 26.8943 42.452 29.4825L42.1254 31.0353L43.4262 30.128C44.272 29.4825 45.182 28.9648 46.1562 28.5752C47.8479 27.8598 49.5979 27.4759 51.3537 27.4759C53.0453 27.4759 54.6029 27.8016 56.032 28.4472L56.942 28.8369L56.8779 27.8016L56.487 23.4628L56.4229 22.7475L55.7753 22.9394L53.7629 23.457L53.4362 16.0706L68.247 11.3421L68.1187 17.1059L69.2212 17.3676L72.4704 11.2142L82.1537 19.7638L82.5445 20.1535L82.9353 19.7638C84.2362 18.5308 85.8579 17.4955 87.6137 16.786L88.3312 16.4603L87.812 15.8147L86.0562 13.6744L97.1687 0.91394L103.014 9.59151L94.112 14.384L92.1637 15.4192L94.4387 15.4832C98.662 15.5472 102.43 17.3618 104.962 20.4734L105.872 21.6366L106.455 22.352L105.481 23.3872L104.834 24.1026L102.623 26.4988L102.232 26.9525L102.687 27.3421L104.764 29.2207L105.545 29.9361L105.738 28.9009L106.52 23.9805L106.712 22.6835L106.905 21.3865L108.071 14.0641H119.114L119.178 13.5464L119.37 12.3134H128.984L131.323 26.9525L131.451 27.9238L132.233 27.3421C133.207 26.6268 134.245 26.1091 135.354 25.6555C136.847 25.0739 138.34 24.8122 139.904 24.8122C141.724 24.8122 143.48 25.2018 144.973 26.0452C145.037 26.0452 145.037 26.1091 145.165 26.1731L145.883 26.4348L145.947 25.6555L146.14 24.0386L146.204 23.521L145.685 23.393L143.736 22.9394L143.672 15.2971L158.553 18.5366L159.655 24.0444H160.822L161.989 19.316L174.396 22.2938L161.662 60.4472L152.632 57.5973L152.568 54.1019V53.5842L152.049 53.5203L143.019 52.2233L143.538 47.6228L143.666 46.5235L142.692 47.0412C142.237 47.3029 141.782 47.4948 141.327 47.6228C139.834 48.2044 138.34 48.4661 136.841 48.4661C136.386 48.4661 135.995 48.4661 135.54 48.4021L134.759 48.3382L134.887 49.1175L135.535 53.1364L122.345 50.8042L121.657 44.8369L121.465 42.8943L120.555 44.581L119.061 47.4948L116.267 42.3767L115.421 40.8238L115.159 42.5744L114.575 46.5235L103.008 44.7089L103.918 39.2651L104.11 38.0321L103.008 38.6777C101.124 39.7769 98.9128 40.6842 96.3812 41.2716C95.4712 41.4636 94.5612 41.6613 93.587 41.7253L93.0679 41.7893V52.6711L70.3295 41.4636L69.4837 41.0739V51.63L59.2812 53.119L58.8262 48.5184L58.6979 47.2854L57.7878 48.1288C56.4229 49.4258 54.9295 50.461 53.302 51.1706C51.6104 51.886 49.8604 52.2698 48.1687 52.2698C46.4129 52.2698 44.7912 51.8801 43.2979 51.2346C40.5737 49.955 38.5612 47.5588 37.7154 44.5112C37.3245 43.0862 37.1962 41.5973 37.3887 40.0386L37.5812 38.4218L36.4145 39.585C35.5687 40.3643 34.6587 41.1379 33.6845 41.8532L33.3578 42.115L33.4862 42.5046L36.9278 55.5908L37.5112 57.923L35.2362 58.6384L28.802 60.7089L26.6028 61.2905ZM29.4612 26.115C29.1345 26.115 28.8137 26.115 28.4229 26.1789L27.9678 26.2429L27.3203 26.3709L27.5128 27.0165L27.6412 27.4061L29.4612 33.4316L29.6537 34.0132L29.9162 34.8565L30.5637 34.2749L31.0187 33.8852C32.8387 32.2684 33.422 30.6457 33.0312 28.5752C32.7687 27.3421 31.8645 26.7605 31.2753 26.5046C30.8962 26.2429 30.1787 26.115 29.4612 26.115ZM78.9745 26.3069L77.8079 27.4061L74.757 30.32L74.1095 30.9656L74.9554 31.2913L78.2045 32.5243L79.1787 32.9139L78.9862 31.8787C78.7237 30.5177 78.6595 29.1568 78.7937 27.8598L78.9745 26.3069ZM92.2279 22.9394C90.9912 22.9394 89.7604 23.457 88.9145 24.4283C87.6137 25.8532 87.357 27.9935 88.267 29.6744L88.5295 30.128L88.9204 30.8434L89.5037 30.1978L89.8945 29.8082L94.3804 24.754L94.707 24.3643L95.2904 23.7187L94.5087 23.393L93.9895 23.2011C93.3304 23.0732 92.8112 22.9394 92.2279 22.9394Z" fill="#FFCB05"/>
<path d="M99.015 30.4471L98.8867 30.5751C98.9508 30.5751 99.015 30.5111 99.015 30.4471Z" fill="#7D7F68"/>
<path d="M102.918 26.9458L105.128 24.5496L104.347 25.329V25.265L103.699 25.9804L101.488 28.3126L103.565 30.1912L103.956 27.859L104.994 28.7663L102.918 26.9458Z" fill="#7D7F68"/>
<path d="M102.918 26.9458L104.994 28.7605L105.776 23.8401L105.128 24.5554L102.918 26.9458Z" fill="#7D7F68"/>
<path d="M87.5175 32.8433C87.71 33.0353 87.5175 32.9073 87.71 33.0353L89.075 32.064C88.8825 31.936 88.6842 31.7383 88.4917 31.6103C86.5433 29.7957 87.0625 25.7826 88.2992 23.5783C84.9158 26.3003 85.1142 30.4471 87.5175 32.8433Z" fill="#C7A008"/>
<path d="M103.956 35.1116C101.681 36.9902 99.1492 38.1534 95.7717 38.9967C95.0542 39.1886 94.2783 39.3224 93.625 39.3224C88.235 39.84 83.7492 37.3798 82.0575 33.4249C81.865 32.9713 81.6667 32.4536 81.5383 31.936C80.7567 28.5685 81.41 25.5849 83.0958 23.1886C83.2883 22.9269 83.4225 22.735 83.615 22.5431C83.5508 22.607 83.4225 22.671 83.3525 22.735C82.705 23.3166 82.1158 23.8982 81.6608 24.6136C79.9692 26.9458 79.3217 29.9876 80.1033 33.3609C80.2317 33.8786 80.3658 34.3962 80.6225 34.8499C82.3142 38.8688 86.8583 41.329 92.19 40.8113C92.9075 40.7473 93.6192 40.6194 94.4008 40.4216C97.7783 39.5783 100.38 38.4151 102.585 36.5365C103.104 36.0829 103.688 35.5652 104.207 35.0476L104.143 34.9836C104.02 35.0476 103.956 35.0476 103.956 35.1116Z" fill="#C7A008"/>
<path d="M66.0742 24.9393L72.0533 16.5176L71.7908 16.3257L66.01 24.4217L66.0742 24.9393Z" fill="#C7A008"/>
<path d="M105.776 23.8401L104.994 28.7605L103.956 27.8531L103.565 30.1854L101.488 28.3068L103.699 25.9746L104.347 25.2592V25.3232L105.128 24.5438L105.776 23.8401Z" fill="#C7A008"/>
<path d="M98.3675 9.97455L100.444 9.06724L96.6117 4.14685L95.375 5.96146L98.3675 9.97455Z" fill="#C7A008"/>
<path d="M40.1508 22.1534C30.4033 10.3642 12.9267 16.7096 6.69083 22.2174L6.95333 22.671C8.38249 21.8277 9.93999 21.1181 11.5033 20.4028C17.7392 17.7448 23.7183 16.9713 28.4608 17.8088C30.1525 18.0007 31.9025 18.5242 33.4658 19.5594C35.6125 20.7924 37.2342 22.4733 38.2083 24.6776C39.9 28.5627 38.4008 33.7448 34.44 38.0196C39.4392 33.4249 42.8808 29.0222 40.1508 22.1534Z" fill="#C7A008"/>
<path d="M59.9667 35.8851C59.9025 35.6932 59.9025 35.4315 59.8383 35.2395C59.3192 33.297 58.1467 31.7441 56.5892 30.703C54.1217 29.0163 50.61 28.6965 47.1683 30.1214C45.3483 30.9008 43.7908 32.1279 42.49 33.5529C43.4642 32.7095 44.5667 32.064 45.7392 31.5463C49.1808 30.0574 52.6925 30.4471 55.16 32.1279C56.7175 33.1632 57.89 34.7219 58.4092 36.6645C58.4733 36.8564 58.5375 37.1181 58.5375 37.3101C58.6658 38.0894 58.73 38.799 58.73 39.5783C58.6658 41.8466 57.82 44.1149 56.455 46.0574C56.2625 46.3831 56 46.639 55.7375 46.9647C56.5192 46.2493 57.2308 45.5398 57.8142 44.6965C59.2433 42.7539 60.025 40.4856 60.1533 38.2174C60.165 37.4438 60.1008 36.6645 59.9667 35.8851Z" fill="#C7A008"/>
<path d="M50.4175 33.0353C50.4175 33.0353 51.8467 31.6103 51.7825 31.6103C50.0267 31.5464 49.2508 33.2272 49.1808 33.361C49.5716 33.169 49.9625 33.0992 50.4175 33.0353Z" fill="#C7A008"/>
<path d="M53.7308 35.0476C53.795 35.3094 53.8592 35.5013 53.8592 35.763C53.8592 36.1527 53.795 36.4784 53.5967 36.7983C53.8592 36.6703 55.9358 35.6351 55.1542 33.5587C55.2242 33.6867 53.6667 35.0476 53.7308 35.0476Z" fill="#C7A008"/>
<path d="M45.675 36.2748C45.675 35.4315 47.1683 33.297 47.6233 32.5816C45.2842 34.0705 44.2458 36.0771 44.2458 37.6358C44.2458 40.3577 46.6492 42.5562 49.5075 42.5562C50.8725 42.5562 53.34 41.8408 54.9675 39.2526C54.1217 39.8342 51.9808 41.1312 50.8083 41.1312C47.95 41.137 45.675 38.9967 45.675 36.2748Z" fill="#C7A008"/>
<path d="M65.7533 38.7408L65.8175 49.6866L67.5733 49.8146L67.1825 37.3101L65.7533 38.7408Z" fill="#C7A008"/>
<path d="M55.7433 17.8146V18.7859L64.0617 16.3257L64.645 26.8818L66.0742 24.9393L65.7475 14.3831L55.7433 17.8146Z" fill="#C7A008"/>
<path d="M80.7567 21.5718L73.0275 14.4471L72.0533 16.5176L78.9425 22.9328L80.7567 21.5718Z" fill="#C7A008"/>
<path d="M79.59 34.8499L70.4317 31.8081L69.1308 33.233L78.225 36.8622C79.2633 38.8048 80.8267 40.4915 82.775 41.6547C84.6592 42.8179 86.87 43.5333 89.145 43.7252V48.1977L90.5742 48.9131L91.0292 42.1781L79.59 34.8499Z" fill="#C7A008"/>
<path d="M94.2725 33.6227C96.5475 33.1051 97.7783 31.936 98.9508 30.6449C98.105 31.3602 93.9458 32.2617 93.2342 32.4595L91.8692 33.9484C92.4525 33.9426 93.4967 33.8146 94.2725 33.6227Z" fill="#C7A008"/>
<path d="M90.1775 18.0705C86.0183 18.5881 83.8775 22.0894 83.5508 22.4733C85.1083 21.1763 86.9925 20.205 89.1392 19.7514C94.2725 18.5183 98.7525 20.0771 101.547 23.5085L103.303 22.0836C100.508 18.7219 95.3108 16.8433 90.1775 18.0705Z" fill="#C7A008"/>
<path d="M104.084 34.9837C104.603 34.594 105.449 34.1403 105.968 33.6227L100.444 28.7023C99.9892 29.2199 99.6625 30.0633 99.1433 30.4529L104.084 34.9837Z" fill="#C7A008"/>
<path d="M132.475 48.1978C126.694 43.4053 127.015 33.233 129.873 29.9935L127.342 13.9935L121.753 14.7088L121.491 16.1338H125.714L127.989 30.6449C125.131 33.8844 123.766 38.2232 124.676 42.2421C125.393 45.3537 127.342 47.8139 130.066 49.2388C130.328 49.3668 130.649 49.5006 130.912 49.6285L130.976 49.8204L132.668 50.0822C132.609 50.1403 132.802 48.3257 132.475 48.1978Z" fill="#C7A008"/>
<path d="M110.192 16.3257L109.929 17.7506H116.299L118.183 28.0509L119.613 26.6259L118.119 15.7441L110.192 16.3257Z" fill="#C7A008"/>
<path d="M121.106 36.2748L119.029 41.5849L119.548 43.0098L122.471 34.9138L121.106 36.2748Z" fill="#C7A008"/>
<path d="M114.998 32.9713L113.569 34.3962L112.012 43.9811L113.505 44.4987L114.998 32.9713Z" fill="#C7A008"/>
<path d="M143.652 29.8655C144.497 30.4471 145.209 31.2265 145.728 32.1338C146.183 32.8492 146.446 33.5587 146.702 34.466C147.42 37.3799 146.574 40.4915 144.754 42.9517C144.562 43.2134 144.363 43.4693 144.171 43.667C144.888 43.0215 153.982 36.3446 145.145 27.6031C135.397 24.4275 131.693 30.7147 131.372 31.1683C132.411 30.325 133.583 29.5514 134.878 29.0978C138.127 27.7892 141.377 28.2428 143.652 29.8655Z" fill="#C7A008"/>
<path d="M138.781 30.5111C138.781 30.5751 140.21 29.0862 140.21 29.0862C138.454 29.1501 137.608 29.9935 137.742 30.3831C137.614 30.5111 137.55 30.7088 137.48 30.8368C137.807 30.639 138.518 30.5111 138.781 30.5111Z" fill="#C7A008"/>
<path d="M142.03 32.7154C142.094 32.9771 142.094 33.169 142.094 33.4308C142.094 33.7565 141.966 34.0763 141.832 34.3381C142.094 34.2101 144.171 33.5587 143.389 31.2265C143.459 31.3544 141.96 32.7154 142.03 32.7154Z" fill="#C7A008"/>
<path d="M137.416 40.032C139.364 40.096 141.575 38.9328 143.132 36.7925C139.172 37.6358 134.948 30.9648 135.333 30.3134C133.84 31.4126 132.475 33.4889 132.411 34.9778C132.282 37.6998 134.557 39.904 137.416 40.032Z" fill="#C7A008"/>
<path d="M159.308 57.329L160.218 57.9106L171.652 23.7063L163.077 21.7637L163.013 23.7703L169.902 25.2592L159.308 57.329Z" fill="#C7A008"/>
<path d="M145.728 18.0705L145.793 20.0131L154.887 21.8277L158.393 38.4093L159.822 36.9844L156.45 20.2108L145.728 18.0705Z" fill="#C7A008"/>
<path d="M152.746 36.9902L150.214 51.1116L151.643 51.5652L154.175 35.5652L152.746 36.9902Z" fill="#C7A008"/>
<path d="M34.6967 56.2937L30.4733 40.8753L28.9158 41.9745L32.8767 56.6776L34.6967 56.2937Z" fill="#C7A008"/>
<path d="M33.5883 33.169C32.6142 34.2043 30.4033 36.2108 29.1725 36.9902L28.3908 34.594L26.7692 29.2839L25.7308 25.7187L24.6925 27.0156L25.7308 30.5809L27.3525 35.827L28.1342 38.2232C29.8842 37.2461 32.3575 35.1756 33.5883 33.169Z" fill="#C7A008"/>
<path d="M93.8817 24.032C92.5167 23.5144 90.6325 23.6423 89.5942 24.8113C89.3317 25.0731 88.8767 25.7186 88.7484 26.0443C89.7225 25.265 91.5425 25.0731 92.645 25.5267L93.8817 24.032Z" fill="#7D7F68"/>
<path d="M32.4217 28.8244C32.2933 28.0451 31.5117 27.3995 31.1208 27.2076C30.4733 26.8819 29.2367 26.8179 28.3908 27.0156C28.5192 27.5333 28.7175 28.1788 28.7817 28.4406C29.1083 28.5045 29.6917 28.5685 30.0183 28.7023C30.4092 28.8942 31.0567 29.2839 31.185 30.1272C31.3775 31.1625 31.3133 32.1977 30.8583 32.9771C32.095 31.8081 32.6783 30.5111 32.4217 28.8244Z" fill="#7D7F68"/>
<path d="M34.5304 28.7729C33.947 25.6613 29.852 23.9165 25.757 26.1149L26.7954 29.6802L28.417 34.9903L29.1987 37.3865C32.2554 35.5079 35.312 33.1117 34.5304 28.7729ZM30.5054 33.6293C30.0504 32.2044 29.0762 29.0928 29.0762 29.0928C29.0762 29.0928 28.8837 28.4472 28.6212 27.6678C29.467 27.5399 30.3129 27.6039 30.9604 27.9296C31.3512 28.1215 31.9987 28.5112 32.127 29.3545C32.5179 31.0412 31.9345 32.3323 30.5054 33.6293Z" fill="#3C5AA6"/>
<path d="M95.9962 23.8467C93.7212 21.7762 90.2154 21.9041 88.1329 24.1724C86.0562 26.4407 86.1845 29.9361 88.4595 32.0124C88.652 32.2044 88.8504 32.3382 89.0429 32.4661L96.387 24.1724C96.2529 24.1084 96.1245 23.9746 95.9962 23.8467ZM89.107 29.6802C88.3895 28.3832 88.5237 26.7024 89.6262 25.5334C90.6645 24.4341 92.2279 24.1084 93.587 24.626L89.107 29.6802Z" fill="#3567B0"/>
<path d="M105.776 22.9327L101.745 26.8179L105.577 30.2494L105.776 22.9327Z" fill="#1E2D5F"/>
<path d="M143.389 31.2904C143.453 31.5522 143.453 31.8081 143.453 32.0698C143.389 33.6227 141.96 34.7917 140.204 34.7277C138.448 34.6638 137.083 33.3668 137.153 31.8139C137.217 30.389 138.518 29.2199 140.076 29.156C139.749 29.092 139.428 29.028 139.102 29.028C136.179 28.9 133.84 30.9706 133.712 33.5006C133.583 36.2225 135.788 38.4907 138.647 38.5547C141.569 38.6827 143.908 36.6121 144.037 33.8902C144.235 32.9713 143.914 32.064 143.389 31.2904Z" fill="#3466AF"/>
<path d="M55.2883 34.3962C55.2883 35.9491 53.8592 37.1821 52.1675 37.1821C50.4117 37.1821 49.0467 35.9491 49.0467 34.3962C49.0467 32.9713 50.2833 31.7383 51.905 31.6103C51.5783 31.5464 51.2575 31.5464 50.9308 31.5464C48.0083 31.5464 45.7333 33.6867 45.7333 36.2748C45.7333 38.9967 48.0083 41.1312 50.8667 41.1312C53.7892 41.1312 56.0642 38.9909 56.0642 36.2748C56.0642 35.3035 55.7375 34.4602 55.2183 33.6808C55.2242 33.8786 55.2883 34.1403 55.2883 34.3962Z" fill="url(#paint7_linear_507_90)"/>
<path d="M161.487 18.7285L160.186 24.0386L159.02 18.1411L143.036 14.6457L143.165 23.521L145.568 24.0386L145.375 25.6555C145.375 25.6555 145.311 25.6555 145.311 25.5915C142.325 24.0386 138.62 23.8409 135.173 25.2018C134.006 25.6555 132.898 26.2371 131.924 26.9525L129.52 11.7958H118.933L118.67 13.5464H107.494L106.193 21.3225L105.283 20.1593C102.553 16.8558 98.6562 15.0412 94.3045 14.9132L103.79 9.85904L97.1628 0.00662231L85.2104 13.7442L87.287 16.2683C85.4029 17.0477 83.7812 18.083 82.4162 19.3799L72.1495 10.3127L68.5737 17.1117L68.702 10.5046L52.6545 15.6228L53.1095 24.1724L55.8395 23.457L56.2303 27.7958C53.1095 26.3709 49.3412 26.4348 45.8995 27.9237C44.8612 28.3774 43.887 28.895 43.0412 29.5406C43.6245 26.8827 43.4962 24.2945 42.4578 21.9623C41.2912 19.2404 39.1445 16.9081 36.6128 15.4832C34.7928 14.2502 32.652 13.5406 30.377 13.2789C24.8528 12.3076 18.162 13.2789 11.5995 16.0648C9.19618 17.1 6.92118 18.2691 4.90868 19.5602L2.37701 21.1771L3.93451 23.7711L8.74118 31.931L10.2345 34.3912L12.8362 33.0942L13.227 32.9023L25.1737 59.4759L26.3403 62.0001L29.0062 61.1567L35.4403 59.0862L38.2987 58.1789L37.5812 55.329L34.1395 42.2429C35.1137 41.5275 36.0237 40.754 36.8695 39.9107C36.677 41.4635 36.8053 43.0862 37.1962 44.5751C38.1062 47.7507 40.1828 50.2749 43.1112 51.6358C46.232 53.1248 50.0645 53.1248 53.5703 51.6358C55.3262 50.8565 56.9478 49.8212 58.2487 48.4603L58.7037 53.7064L70.0087 52.0197V41.923L93.5928 53.5842V42.3767C94.567 42.3127 95.477 42.1149 96.4512 41.923C99.0528 41.2774 101.258 40.4341 103.27 39.2651L102.296 45.2905L115.03 47.2971L115.748 42.6966L119.061 48.8499L121.074 44.9648L121.791 51.3799L136.217 53.9041L135.435 49.0477C137.384 49.2396 139.466 48.9837 141.479 48.2683C141.934 48.0764 142.453 47.8787 142.844 47.6228L142.26 52.8049L151.874 54.1658L151.938 58.1149L161.942 61.2265L175.003 22.0379L161.487 18.7285ZM105.09 24.5621L105.738 23.8467L104.956 28.7671L102.88 26.8885L105.09 24.5621ZM96.6437 4.35122L100.15 9.07969L90.1454 14.0001L89.4278 12.9648C89.4337 13.0288 96.6437 4.35122 96.6437 4.35122ZM30.4412 40.8819L34.402 56.1724L27.9678 58.2429L14.7145 28.7089C13.997 29.0986 12.6378 29.7442 11.4653 30.3258L6.65868 22.2298C8.54285 20.9968 10.6895 19.9615 12.8945 18.9903C19.1303 16.3323 25.1095 15.5588 29.852 16.3963C31.5437 16.5882 33.2937 17.1117 34.857 18.1469C37.0037 19.3799 38.6253 21.0608 39.5995 23.2651C41.9387 28.5751 38.1062 36.2233 30.4412 40.8819ZM60.1329 38.1658C60.0687 40.4341 59.2228 42.7024 57.7937 44.6449C56.4287 46.5235 54.6087 48.0124 52.4037 48.9837C46.8153 51.3799 41.227 48.9837 39.7337 43.6736C38.3045 38.5555 41.682 32.4661 47.0778 30.1338C50.5195 28.6449 54.0312 29.0346 56.4987 30.7155C58.0562 31.7507 59.2287 33.3094 59.7478 35.252C59.812 35.4439 59.8762 35.7056 59.8762 35.8976C60.1328 36.6769 60.1329 37.4505 60.1329 38.1658ZM90.6003 48.9837L67.1445 37.3225L67.2087 49.5653L61.1653 50.4087L60.7103 45.3545C62.5945 42.1789 63.242 38.3578 62.2679 34.9263C61.7487 33.0477 60.7745 31.361 59.4095 30.0699L58.5637 19.7696L55.8337 20.485L55.7053 17.891L65.4529 14.9772L66.0362 24.9517L73.1879 14.9074L80.2695 21.5784L70.4579 31.8787L79.6862 35.5079C80.7245 37.4505 82.2878 39.0731 84.2362 40.3003C86.1204 41.4635 88.3312 42.1789 90.6062 42.3709L90.6003 48.9837ZM78.4495 32.0124L75.2003 30.7794L78.2512 27.8656C78.0645 29.2265 78.1287 30.5875 78.4495 32.0124ZM103.924 35.1182C101.649 36.9968 99.117 38.16 95.7395 39.0033C95.022 39.1953 94.2462 39.3291 93.5928 39.3291C88.2029 39.8467 83.717 37.3865 82.0254 33.4316C81.8328 32.9779 81.6345 32.4603 81.5062 31.9426C80.7245 28.5751 81.3779 25.5915 83.0637 23.1953C83.5187 22.4799 84.102 21.8983 84.7554 21.3167C86.3129 19.8918 88.3312 18.9205 90.6003 18.3389C95.7337 17.1059 100.214 18.6646 103.008 22.0321L93.2603 32.3963C93.9078 32.5243 94.952 32.3323 95.7279 32.1346C98.067 31.553 99.3679 30.32 100.47 29.023L104.367 32.5184L105.534 33.5537C105.026 34.1469 104.507 34.6646 103.924 35.1182ZM124.65 48.9197L122.503 34.9263L119.516 42.6326L115.03 32.9779H114.966L113.21 44.1855L105.738 42.8885L106.776 36.6711C107.039 36.4094 107.36 36.1535 107.622 35.8278L110.025 33.3676L107.686 31.2273L110.218 16.3265H117.755L119.639 26.6268L121.785 14.7096H127.175L129.45 29.2207C126.592 32.4603 125.227 36.7991 126.137 40.818C126.855 43.9296 128.803 46.3898 131.527 47.8787C131.79 48.0066 132.11 48.1404 132.373 48.2683L132.635 50.1469L124.65 48.9197ZM143.293 44.3192C142.447 44.9008 141.537 45.4185 140.563 45.7442C138.615 46.4595 136.73 46.6515 134.975 46.2618C133.808 46.0001 132.7 45.5464 131.725 44.9008C130.232 43.8016 129.124 42.2429 128.605 40.2364C128.021 37.8401 128.54 35.2462 129.841 32.9837C130.489 31.8845 131.335 30.8434 132.309 29.9419C133.411 28.9706 134.712 28.1273 136.077 27.6097C139.39 26.3767 142.64 26.8303 144.915 28.453C145.76 29.0346 146.472 29.814 146.991 30.7213C147.382 31.4366 147.709 32.2102 147.901 33.0535C148.619 35.9674 147.773 39.079 145.953 41.5392C145.375 42.6326 144.401 43.5399 143.293 44.3192ZM160.186 57.5333L154.662 55.9165L154.207 35.5777L151.413 51.252L145.37 50.2807L145.825 45.7442C149.785 42.4406 151.868 37.1946 150.695 32.4021C150.176 30.3316 149.138 28.453 147.575 27.092L148.094 21.782L145.819 21.2004L145.883 18.3505L156.278 20.421L159.784 36.9386L163.36 22.1019L171.287 23.8525L160.186 57.5333Z" fill="url(#paint8_linear_507_90)"/>
<path d="M167.627 55.2584H167.889C168.216 55.2584 168.472 55.1305 168.472 54.8048C168.472 54.6129 168.28 54.3511 167.889 54.3511H167.627V55.2584ZM167.627 56.6194H167.236V54.1592C167.428 54.0952 167.627 54.0952 167.953 54.0952C168.344 54.0952 168.601 54.1592 168.735 54.2872C168.863 54.4151 168.997 54.5489 168.997 54.8048C168.997 55.1305 168.805 55.3224 168.542 55.3864C168.735 55.4504 168.933 55.6481 168.933 55.968C168.997 56.3577 169.062 56.4856 169.062 56.5496H168.671C168.607 56.4856 168.542 56.2239 168.478 55.904C168.414 55.5783 168.286 55.4504 167.959 55.4504H167.632L167.627 56.6194ZM168.082 53.4438C167.107 53.4438 166.326 54.2872 166.326 55.3224C166.326 56.3577 167.107 57.201 168.146 57.201C169.12 57.201 169.902 56.3577 169.902 55.3224C169.837 54.2872 169.056 53.4438 168.082 53.4438ZM168.082 53.1181C169.318 53.1181 170.228 54.0894 170.228 55.3224C170.228 56.5554 169.254 57.5267 168.017 57.5267C166.781 57.5267 165.807 56.5554 165.807 55.3224C165.871 54.0894 166.845 53.1181 168.082 53.1181Z" fill="black"/>
</g>
<defs>
<linearGradient id="paint0_linear_507_90" x1="8.6197" y1="34.6768" x2="2.14098" y2="22.5674" gradientUnits="userSpaceOnUse">
<stop stop-color="#0070B6"/>
<stop offset="1" stop-color="#1D2C5E"/>
</linearGradient>
<linearGradient id="paint1_linear_507_90" x1="87.9981" y1="9.94839" x2="96.2333" y2="1.09854" gradientUnits="userSpaceOnUse">
<stop stop-color="#0070B6"/>
<stop offset="1" stop-color="#1D2C5E"/>
</linearGradient>
<linearGradient id="paint2_linear_507_90" x1="51.9648" y1="24.6779" x2="50.9856" y2="16.4258" gradientUnits="userSpaceOnUse">
<stop stop-color="#0070B6"/>
<stop offset="1" stop-color="#1D2C5E"/>
</linearGradient>
<linearGradient id="paint3_linear_507_90" x1="142.202" y1="23.089" x2="141.811" y2="15.6408" gradientUnits="userSpaceOnUse">
<stop stop-color="#125D9E"/>
<stop offset="1" stop-color="#1D2C5E"/>
</linearGradient>
<linearGradient id="paint4_linear_507_90" x1="114.639" y1="12.3503" x2="106.006" y2="26.1247" gradientUnits="userSpaceOnUse">
<stop stop-color="#125D9E"/>
<stop offset="1" stop-color="#1D2C5E"/>
</linearGradient>
<linearGradient id="paint5_linear_507_90" x1="37.9534" y1="34.3904" x2="43.8363" y2="45.9955" gradientUnits="userSpaceOnUse">
<stop stop-color="#105FA1"/>
<stop offset="1" stop-color="#1D2C5E"/>
</linearGradient>
<linearGradient id="paint6_linear_507_90" x1="15.6013" y1="30.4578" x2="22.4091" y2="46.2853" gradientUnits="userSpaceOnUse">
<stop stop-color="#105FA1"/>
<stop offset="1" stop-color="#1D2C5E"/>
</linearGradient>
<linearGradient id="paint7_linear_507_90" x1="45.6394" y1="36.3393" x2="55.9889" y2="36.3393" gradientUnits="userSpaceOnUse">
<stop stop-color="#3C5AA6"/>
<stop offset="0.933" stop-color="#2B73B9"/>
<stop offset="1" stop-color="#2A75BB"/>
</linearGradient>
<linearGradient id="paint8_linear_507_90" x1="2.36454" y1="31.0045" x2="174.993" y2="31.0045" gradientUnits="userSpaceOnUse">
<stop stop-color="#3C5AA6"/>
<stop offset="0.933" stop-color="#2B73B9"/>
<stop offset="1" stop-color="#2A75BB"/>
</linearGradient>
<clipPath id="clip0_507_90">
<rect width="175" height="64" fill="white"/>
</clipPath>
</defs>
</svg>
